<svg xmlns="http://www.w3.org/2000/svg" viewBox="0 0 900 1300" width="900" height="1300" role="img" preserveAspectRatio="xMidYMid slice"><defs><linearGradient id="sky7109" x1="0" y1="0" x2="0.2" y2="1"><stop offset="0" stop-color="#3d4a57"/><stop offset="1" stop-color="#8d7f74"/></linearGradient><radialGradient id="sun7109" cx="0.78" cy="0.12" r="0.55"><stop offset="0" stop-color="#ffd9a3" stop-opacity="0.85"/><stop offset="1" stop-color="#ffd9a3" stop-opacity="0"/></radialGradient><linearGradient id="p7109_0" x1="0.15" y1="0" x2="0.5" y2="1"><stop offset="0" stop-color="#2c3843"/><stop offset="0.52" stop-color="#5c6b77"/><stop offset="0.53" stop-color="#2c3843" stop-opacity="0.88"/><stop offset="1" stop-color="#5c6b77"/></linearGradient><linearGradient id="p7109_1" x1="0.15" y1="0" x2="0.5" y2="1"><stop offset="0" stop-color="#35424e"/><stop offset="0.52" stop-color="#6d7d89"/><stop offset="0.53" stop-color="#35424e" stop-opacity="0.88"/><stop offset="1" stop-color="#6d7d89"/></linearGradient><linearGradient id="p7109_2" x1="0.15" y1="0" x2="0.5" y2="1"><stop offset="0" stop-color="#232d36"/><stop offset="0.52" stop-color="#4a5966"/><stop offset="0.53" stop-color="#232d36" stop-opacity="0.88"/><stop offset="1" stop-color="#4a5966"/></linearGradient><linearGradient id="p7109_3" x1="0.15" y1="0" x2="0.5" y2="1"><stop offset="0" stop-color="#3f4d59"/><stop offset="0.52" stop-color="#7b8b97"/><stop offset="0.53" stop-color="#3f4d59" stop-opacity="0.88"/><stop offset="1" stop-color="#7b8b97"/></linearGradient><linearGradient id="sheen7109" x1="0" y1="0" x2="0.85" y2="1"><stop offset="0" stop-color="#ffffff" stop-opacity="0.42"/><stop offset="0.38" stop-color="#ffffff" stop-opacity="0.04"/><stop offset="0.62" stop-color="#ffffff" stop-opacity="0.16"/><stop offset="1" stop-color="#ffffff" stop-opacity="0"/></linearGradient><linearGradient id="vig7109" x1="0" y1="0" x2="0.15" y2="1"><stop offset="0" stop-color="#000000" stop-opacity="0.22"/><stop offset="0.4" stop-color="#000000" stop-opacity="0"/><stop offset="1" stop-color="#000000" stop-opacity="0.3"/></linearGradient><filter id="sh7109" x="-12%" y="-12%" width="130%" height="130%"><feDropShadow dx="0" dy="6" stdDeviation="10" flood-color="#000000" flood-opacity="0.28"/></filter></defs><rect width="900" height="1300" fill="url(#sky7109)"/><rect width="900" height="1300" fill="url(#sun7109)"/><rect x="0" y="1196" width="900" height="104" fill="#2c3339"/><rect x="36" y="0" width="828" height="1196" fill="#4b545c"/><g filter="url(#sh7109)"><rect x="81" y="65" width="738" height="195" fill="#101317"/><rect x="84.0" y="68.0" width="144.0" height="189.0" fill="url(#p7109_0)"/><rect x="84.0" y="68.0" width="144.0" height="189.0" fill="url(#sheen7109)"/><rect x="231.0" y="68.0" width="144.0" height="189.0" fill="url(#p7109_1)"/><rect x="231.0" y="68.0" width="144.0" height="189.0" fill="url(#sheen7109)"/><rect x="378.0" y="68.0" width="144.0" height="189.0" fill="url(#p7109_2)"/><rect x="378.0" y="68.0" width="144.0" height="189.0" fill="url(#sheen7109)"/><rect x="525.0" y="68.0" width="144.0" height="189.0" fill="url(#p7109_1)"/><rect x="525.0" y="68.0" width="144.0" height="189.0" fill="url(#sheen7109)"/><rect x="672.0" y="68.0" width="144.0" height="189.0" fill="url(#p7109_0)"/><rect x="672.0" y="68.0" width="144.0" height="189.0" fill="url(#sheen7109)"/><rect x="81" y="65" width="738" height="1.2" fill="#39424a" opacity="0.9"/><rect x="81" y="65" width="1.2" height="195" fill="#39424a" opacity="0.55"/></g><rect x="36" y="259" width="828" height="16" fill="#3b434a"/><g><rect x="81" y="280" width="738" height="195" fill="#101317"/><rect x="84.0" y="283.0" width="144.0" height="189.0" fill="url(#p7109_2)"/><rect x="84.0" y="283.0" width="144.0" height="189.0" fill="url(#sheen7109)"/><rect x="231.0" y="283.0" width="144.0" height="189.0" fill="url(#p7109_0)"/><rect x="231.0" y="283.0" width="144.0" height="189.0" fill="url(#sheen7109)"/><rect x="378.0" y="283.0" width="144.0" height="189.0" fill="url(#p7109_3)"/><rect x="378.0" y="283.0" width="144.0" height="189.0" fill="url(#sheen7109)"/><rect x="525.0" y="283.0" width="144.0" height="189.0" fill="url(#p7109_2)"/><rect x="525.0" y="283.0" width="144.0" height="189.0" fill="url(#sheen7109)"/><rect x="672.0" y="283.0" width="144.0" height="189.0" fill="url(#p7109_1)"/><rect x="672.0" y="283.0" width="144.0" height="189.0" fill="url(#sheen7109)"/><rect x="81" y="280" width="738" height="1.2" fill="#39424a" opacity="0.9"/><rect x="81" y="280" width="1.2" height="195" fill="#39424a" opacity="0.55"/></g><rect x="36" y="474" width="828" height="16" fill="#3b434a"/><g><rect x="81" y="496" width="738" height="195" fill="#101317"/><rect x="84.0" y="499.0" width="144.0" height="189.0" fill="url(#p7109_2)"/><rect x="84.0" y="499.0" width="144.0" height="189.0" fill="url(#sheen7109)"/><rect x="231.0" y="499.0" width="144.0" height="189.0" fill="url(#p7109_1)"/><rect x="231.0" y="499.0" width="144.0" height="189.0" fill="url(#sheen7109)"/><rect x="378.0" y="499.0" width="144.0" height="189.0" fill="url(#p7109_3)"/><rect x="378.0" y="499.0" width="144.0" height="189.0" fill="url(#sheen7109)"/><rect x="525.0" y="499.0" width="144.0" height="189.0" fill="url(#p7109_1)"/><rect x="525.0" y="499.0" width="144.0" height="189.0" fill="url(#sheen7109)"/><rect x="672.0" y="499.0" width="144.0" height="189.0" fill="url(#p7109_2)"/><rect x="672.0" y="499.0" width="144.0" height="189.0" fill="url(#sheen7109)"/><rect x="81" y="496" width="738" height="1.2" fill="#39424a" opacity="0.9"/><rect x="81" y="496" width="1.2" height="195" fill="#39424a" opacity="0.55"/></g><rect x="36" y="690" width="828" height="16" fill="#3b434a"/><g><rect x="81" y="712" width="738" height="195" fill="#101317"/><rect x="84.0" y="715.0" width="144.0" height="189.0" fill="url(#p7109_2)"/><rect x="84.0" y="715.0" width="144.0" height="189.0" fill="url(#sheen7109)"/><rect x="231.0" y="715.0" width="144.0" height="189.0" fill="url(#p7109_0)"/><rect x="231.0" y="715.0" width="144.0" height="189.0" fill="url(#sheen7109)"/><rect x="378.0" y="715.0" width="144.0" height="189.0" fill="url(#p7109_0)"/><rect x="378.0" y="715.0" width="144.0" height="189.0" fill="url(#sheen7109)"/><rect x="525.0" y="715.0" width="144.0" height="189.0" fill="url(#p7109_0)"/><rect x="525.0" y="715.0" width="144.0" height="189.0" fill="url(#sheen7109)"/><rect x="672.0" y="715.0" width="144.0" height="189.0" fill="url(#p7109_2)"/><rect x="672.0" y="715.0" width="144.0" height="189.0" fill="url(#sheen7109)"/><rect x="81" y="712" width="738" height="1.2" fill="#39424a" opacity="0.9"/><rect x="81" y="712" width="1.2" height="195" fill="#39424a" opacity="0.55"/></g><rect x="36" y="906" width="828" height="16" fill="#3b434a"/><g><rect x="81" y="928" width="738" height="195" fill="#101317"/><rect x="84.0" y="931.0" width="144.0" height="189.0" fill="url(#p7109_2)"/><rect x="84.0" y="931.0" width="144.0" height="189.0" fill="url(#sheen7109)"/><rect x="231.0" y="931.0" width="144.0" height="189.0" fill="url(#p7109_2)"/><rect x="231.0" y="931.0" width="144.0" height="189.0" fill="url(#sheen7109)"/><rect x="378.0" y="931.0" width="144.0" height="189.0" fill="url(#p7109_1)"/><rect x="378.0" y="931.0" width="144.0" height="189.0" fill="url(#sheen7109)"/><rect x="525.0" y="931.0" width="144.0" height="189.0" fill="url(#p7109_3)"/><rect x="525.0" y="931.0" width="144.0" height="189.0" fill="url(#sheen7109)"/><rect x="672.0" y="931.0" width="144.0" height="189.0" fill="url(#p7109_0)"/><rect x="672.0" y="931.0" width="144.0" height="189.0" fill="url(#sheen7109)"/><rect x="81" y="928" width="738" height="1.2" fill="#39424a" opacity="0.9"/><rect x="81" y="928" width="1.2" height="195" fill="#39424a" opacity="0.55"/></g><rect x="36" y="1122" width="828" height="16" fill="#3b434a"/><rect x="18" y="20" width="864" height="36" fill="#101317"/><g opacity="0.09"><path d="M-1225 1300 L-315 0 L-245 0 L-1155 1300 Z" fill="#ffffff"/><path d="M-499 1300 L411 0 L443 0 L-467 1300 Z" fill="#ffffff"/><path d="M-508 1300 L402 0 L497 0 L-413 1300 Z" fill="#ffffff"/><path d="M445 1300 L1355 0 L1430 0 L520 1300 Z" fill="#ffffff"/></g><rect width="900" height="1300" fill="url(#vig7109)"/><g opacity="0.72"><rect x="18" y="1260" width="216" height="24" fill="#0d0f12" opacity="0.7"/><text x="29" y="1276" font-family="Inter,Helvetica,Arial,sans-serif" font-size="11" font-weight="700" letter-spacing="2" fill="#ffffff">PLACEHOLDER &#183; COMMERCIAL GLAZING</text></g></svg>