<svg xmlns="http://www.w3.org/2000/svg" viewBox="0 0 900 720" width="900" height="720" role="img" preserveAspectRatio="xMidYMid slice"><defs><linearGradient id="sky9092" x1="0" y1="0" x2="0.2" y2="1"><stop offset="0" stop-color="#8ba1b2"/><stop offset="1" stop-color="#d3dee5"/></linearGradient><radialGradient id="sun9092" cx="0.78" cy="0.12" r="0.55"><stop offset="0" stop-color="#ffffff" stop-opacity="0.85"/><stop offset="1" stop-color="#ffffff" stop-opacity="0"/></radialGradient><linearGradient id="p9092_0" x1="0.15" y1="0" x2="0.5" y2="1"><stop offset="0" stop-color="#5a7182"/><stop offset="0.52" stop-color="#9fb2bf"/><stop offset="0.53" stop-color="#5a7182" stop-opacity="0.88"/><stop offset="1" stop-color="#9fb2bf"/></linearGradient><linearGradient id="p9092_1" x1="0.15" y1="0" x2="0.5" y2="1"><stop offset="0" stop-color="#496073"/><stop offset="0.52" stop-color="#8ba1b1"/><stop offset="0.53" stop-color="#496073" stop-opacity="0.88"/><stop offset="1" stop-color="#8ba1b1"/></linearGradient><linearGradient id="p9092_2" x1="0.15" y1="0" x2="0.5" y2="1"><stop offset="0" stop-color="#667e8e"/><stop offset="0.52" stop-color="#adbdc8"/><stop offset="0.53" stop-color="#667e8e" stop-opacity="0.88"/><stop offset="1" stop-color="#adbdc8"/></linearGradient><linearGradient id="p9092_3" x1="0.15" y1="0" x2="0.5" y2="1"><stop offset="0" stop-color="#3f5768"/><stop offset="0.52" stop-color="#7c93a4"/><stop offset="0.53" stop-color="#3f5768" stop-opacity="0.88"/><stop offset="1" stop-color="#7c93a4"/></linearGradient><linearGradient id="sheen9092" x1="0" y1="0" x2="0.85" y2="1"><stop offset="0" stop-color="#ffffff" stop-opacity="0.42"/><stop offset="0.38" stop-color="#ffffff" stop-opacity="0.04"/><stop offset="0.62" stop-color="#ffffff" stop-opacity="0.16"/><stop offset="1" stop-color="#ffffff" stop-opacity="0"/></linearGradient><linearGradient id="vig9092" x1="0" y1="0" x2="0.15" y2="1"><stop offset="0" stop-color="#000000" stop-opacity="0.22"/><stop offset="0.4" stop-color="#000000" stop-opacity="0"/><stop offset="1" stop-color="#000000" stop-opacity="0.3"/></linearGradient><filter id="sh9092" x="-12%" y="-12%" width="130%" height="130%"><feDropShadow dx="0" dy="6" stdDeviation="10" flood-color="#000000" flood-opacity="0.28"/></filter></defs><rect width="900" height="720" fill="url(#sky9092)"/><rect width="900" height="720" fill="url(#sun9092)"/><rect x="0" y="641" width="900" height="79" fill="#7d868d"/><rect x="0" y="0" width="900" height="641" fill="#b4bcc2"/><rect x="27" y="14" width="846" height="36" fill="#14181c"/><g filter="url(#sh9092)"><rect x="54" y="64" width="792" height="158" fill="#14181c"/><rect x="57.0" y="67.0" width="154.8" height="152.0" fill="url(#p9092_0)"/><rect x="57.0" y="67.0" width="154.8" height="152.0" fill="url(#sheen9092)"/><rect x="214.8" y="67.0" width="154.8" height="152.0" fill="url(#p9092_3)"/><rect x="214.8" y="67.0" width="154.8" height="152.0" fill="url(#sheen9092)"/><rect x="372.6" y="67.0" width="154.8" height="152.0" fill="url(#p9092_1)"/><rect x="372.6" y="67.0" width="154.8" height="152.0" fill="url(#sheen9092)"/><rect x="530.4" y="67.0" width="154.8" height="152.0" fill="url(#p9092_1)"/><rect x="530.4" y="67.0" width="154.8" height="152.0" fill="url(#sheen9092)"/><rect x="688.2" y="67.0" width="154.8" height="152.0" fill="url(#p9092_3)"/><rect x="688.2" y="67.0" width="154.8" height="152.0" fill="url(#sheen9092)"/><rect x="54" y="64" width="792" height="1.2" fill="#3f4952" opacity="0.9"/><rect x="54" y="64" width="1.2" height="158" fill="#3f4952" opacity="0.55"/></g><g filter="url(#sh9092)"><rect x="54" y="244" width="216" height="388" fill="#14181c"/><rect x="57.0" y="247.0" width="210.0" height="189.5" fill="url(#p9092_0)"/><rect x="57.0" y="247.0" width="210.0" height="189.5" fill="url(#sheen9092)"/><rect x="57.0" y="439.5" width="210.0" height="189.5" fill="url(#p9092_1)"/><rect x="57.0" y="439.5" width="210.0" height="189.5" fill="url(#sheen9092)"/><rect x="54" y="244" width="216" height="1.2" fill="#3f4952" opacity="0.9"/><rect x="54" y="244" width="1.2" height="388" fill="#3f4952" opacity="0.55"/></g><g filter="url(#sh9092)"><rect x="297" y="244" width="306" height="388" fill="#14181c"/><rect x="301.0" y="248.0" width="147.0" height="380.0" fill="url(#p9092_2)"/><rect x="301.0" y="248.0" width="147.0" height="380.0" fill="url(#sheen9092)"/><rect x="452.0" y="248.0" width="147.0" height="380.0" fill="url(#p9092_1)"/><rect x="452.0" y="248.0" width="147.0" height="380.0" fill="url(#sheen9092)"/><rect x="297" y="244" width="306" height="1.6" fill="#3f4952" opacity="0.9"/><rect x="297" y="244" width="1.6" height="388" fill="#3f4952" opacity="0.55"/></g><g filter="url(#sh9092)"><rect x="630" y="244" width="216" height="388" fill="#14181c"/><rect x="633.0" y="247.0" width="210.0" height="189.5" fill="url(#p9092_3)"/><rect x="633.0" y="247.0" width="210.0" height="189.5" fill="url(#sheen9092)"/><rect x="633.0" y="439.5" width="210.0" height="189.5" fill="url(#p9092_0)"/><rect x="633.0" y="439.5" width="210.0" height="189.5" fill="url(#sheen9092)"/><rect x="630" y="244" width="216" height="1.2" fill="#3f4952" opacity="0.9"/><rect x="630" y="244" width="1.2" height="388" fill="#3f4952" opacity="0.55"/></g><rect x="436" y="396" width="11" height="101" fill="#3f4952"/><g opacity="0.09"><path d="M-587 720 L-83 0 L-27 0 L-531 720 Z" fill="#ffffff"/><path d="M438 720 L942 0 L984 0 L480 720 Z" fill="#ffffff"/><path d="M-680 720 L-176 0 L-102 0 L-606 720 Z" fill="#ffffff"/><path d="M-308 720 L196 0 L237 0 L-267 720 Z" fill="#ffffff"/></g><rect width="900" height="720" fill="url(#vig9092)"/><g opacity="0.72"><rect x="18" y="680" width="184" height="24" fill="#0d0f12" opacity="0.7"/><text x="29" y="696" font-family="Inter,Helvetica,Arial,sans-serif" font-size="11" font-weight="700" letter-spacing="2" fill="#ffffff">PLACEHOLDER &#183; ENTRANCE DOOR</text></g></svg>