<svg xmlns="http://www.w3.org/2000/svg" viewBox="0 0 900 700" width="900" height="700" role="img" preserveAspectRatio="xMidYMid slice"><defs><linearGradient id="sky4272" x1="0" y1="0" x2="0.2" y2="1"><stop offset="0" stop-color="#9fb3c2"/><stop offset="1" stop-color="#dde7ed"/></linearGradient><radialGradient id="sun4272" cx="0.78" cy="0.12" r="0.55"><stop offset="0" stop-color="#fff6e6" stop-opacity="0.85"/><stop offset="1" stop-color="#fff6e6" stop-opacity="0"/></radialGradient><linearGradient id="p4272_0" x1="0.15" y1="0" x2="0.5" y2="1"><stop offset="0" stop-color="#6f8695"/><stop offset="0.52" stop-color="#b9c8d2"/><stop offset="0.53" stop-color="#6f8695" stop-opacity="0.88"/><stop offset="1" stop-color="#b9c8d2"/></linearGradient><linearGradient id="p4272_1" x1="0.15" y1="0" x2="0.5" y2="1"><stop offset="0" stop-color="#7d94a2"/><stop offset="0.52" stop-color="#c6d3db"/><stop offset="0.53" stop-color="#7d94a2" stop-opacity="0.88"/><stop offset="1" stop-color="#c6d3db"/></linearGradient><linearGradient id="p4272_2" x1="0.15" y1="0" x2="0.5" y2="1"><stop offset="0" stop-color="#61798a"/><stop offset="0.52" stop-color="#a8b9c5"/><stop offset="0.53" stop-color="#61798a" stop-opacity="0.88"/><stop offset="1" stop-color="#a8b9c5"/></linearGradient><linearGradient id="p4272_3" x1="0.15" y1="0" x2="0.5" y2="1"><stop offset="0" stop-color="#8aa0ad"/><stop offset="0.52" stop-color="#d2dde3"/><stop offset="0.53" stop-color="#8aa0ad" stop-opacity="0.88"/><stop offset="1" stop-color="#d2dde3"/></linearGradient><linearGradient id="sheen4272" x1="0" y1="0" x2="0.85" y2="1"><stop offset="0" stop-color="#ffffff" stop-opacity="0.42"/><stop offset="0.38" stop-color="#ffffff" stop-opacity="0.04"/><stop offset="0.62" stop-color="#ffffff" stop-opacity="0.16"/><stop offset="1" stop-color="#ffffff" stop-opacity="0"/></linearGradient><linearGradient id="vig4272" x1="0" y1="0" x2="0.15" y2="1"><stop offset="0" stop-color="#000000" stop-opacity="0.22"/><stop offset="0.4" stop-color="#000000" stop-opacity="0"/><stop offset="1" stop-color="#000000" stop-opacity="0.3"/></linearGradient><filter id="sh4272" x="-12%" y="-12%" width="130%" height="130%"><feDropShadow dx="0" dy="6" stdDeviation="10" flood-color="#000000" flood-opacity="0.28"/></filter></defs><rect width="900" height="700" fill="url(#sky4272)"/><rect width="900" height="700" fill="url(#sun4272)"/><rect x="0" y="560" width="900" height="140" fill="#8f979d"/><rect x="0" y="0" width="900" height="56" fill="#adb4b9"/><rect x="18" y="42" width="864" height="532" fill="#c8cdd1"/><g filter="url(#sh4272)"><rect x="54" y="70" width="792" height="489" fill="#191d21"/><rect x="61.0" y="77.0" width="189.2" height="475.0" fill="url(#p4272_0)"/><rect x="61.0" y="77.0" width="189.2" height="475.0" fill="url(#sheen4272)"/><rect x="257.2" y="77.0" width="189.2" height="475.0" fill="url(#p4272_3)"/><rect x="257.2" y="77.0" width="189.2" height="475.0" fill="url(#sheen4272)"/><rect x="453.5" y="77.0" width="189.2" height="475.0" fill="url(#p4272_1)"/><rect x="453.5" y="77.0" width="189.2" height="475.0" fill="url(#sheen4272)"/><rect x="649.8" y="77.0" width="189.2" height="475.0" fill="url(#p4272_2)"/><rect x="649.8" y="77.0" width="189.2" height="475.0" fill="url(#sheen4272)"/><rect x="54" y="70" width="792" height="2.8" fill="#4a545c" opacity="0.9"/><rect x="54" y="70" width="2.8" height="489" fill="#4a545c" opacity="0.55"/></g><rect x="454" y="70" width="14" height="490" fill="#191d21"/><rect x="454" y="70" width="4" height="490" fill="#4a545c"/><rect x="423" y="294" width="11" height="70" fill="#4a545c"/><rect x="45" y="559" width="810" height="15" fill="#191d21"/><g opacity="0.09"><path d="M-658 700 L-168 0 L-128 0 L-618 700 Z" fill="#ffffff"/><path d="M677 700 L1167 0 L1266 0 L776 700 Z" fill="#ffffff"/><path d="M684 700 L1174 0 L1259 0 L769 700 Z" fill="#ffffff"/><path d="M410 700 L900 0 L951 0 L461 700 Z" fill="#ffffff"/></g><rect width="900" height="700" fill="url(#vig4272)"/><g opacity="0.72"><rect x="18" y="660" width="133" height="24" fill="#0d0f12" opacity="0.7"/><text x="29" y="676" font-family="Inter,Helvetica,Arial,sans-serif" font-size="11" font-weight="700" letter-spacing="2" fill="#ffffff">PLACEHOLDER &#183; DOORS</text></g></svg>