<svg xmlns="http://www.w3.org/2000/svg" viewBox="0 0 900 700" width="900" height="700" role="img" preserveAspectRatio="xMidYMid slice"><defs><linearGradient id="sky4552" x1="0" y1="0" x2="0.2" y2="1"><stop offset="0" stop-color="#d9d2c8"/><stop offset="1" stop-color="#f6f2ec"/></linearGradient><radialGradient id="sun4552" cx="0.78" cy="0.12" r="0.55"><stop offset="0" stop-color="#fff3df" stop-opacity="0.85"/><stop offset="1" stop-color="#fff3df" stop-opacity="0"/></radialGradient><linearGradient id="p4552_0" x1="0.15" y1="0" x2="0.5" y2="1"><stop offset="0" stop-color="#b9c3c8"/><stop offset="0.52" stop-color="#e8eef0"/><stop offset="0.53" stop-color="#b9c3c8" stop-opacity="0.88"/><stop offset="1" stop-color="#e8eef0"/></linearGradient><linearGradient id="p4552_1" x1="0.15" y1="0" x2="0.5" y2="1"><stop offset="0" stop-color="#c6cfd3"/><stop offset="0.52" stop-color="#f0f4f5"/><stop offset="0.53" stop-color="#c6cfd3" stop-opacity="0.88"/><stop offset="1" stop-color="#f0f4f5"/></linearGradient><linearGradient id="p4552_2" x1="0.15" y1="0" x2="0.5" y2="1"><stop offset="0" stop-color="#a9b5bb"/><stop offset="0.52" stop-color="#dde5e8"/><stop offset="0.53" stop-color="#a9b5bb" stop-opacity="0.88"/><stop offset="1" stop-color="#dde5e8"/></linearGradient><linearGradient id="p4552_3" x1="0.15" y1="0" x2="0.5" y2="1"><stop offset="0" stop-color="#cdd5d8"/><stop offset="0.52" stop-color="#f4f7f8"/><stop offset="0.53" stop-color="#cdd5d8" stop-opacity="0.88"/><stop offset="1" stop-color="#f4f7f8"/></linearGradient><linearGradient id="sheen4552" x1="0" y1="0" x2="0.85" y2="1"><stop offset="0" stop-color="#ffffff" stop-opacity="0.42"/><stop offset="0.38" stop-color="#ffffff" stop-opacity="0.04"/><stop offset="0.62" stop-color="#ffffff" stop-opacity="0.16"/><stop offset="1" stop-color="#ffffff" stop-opacity="0"/></linearGradient><linearGradient id="vig4552" x1="0" y1="0" x2="0.15" y2="1"><stop offset="0" stop-color="#000000" stop-opacity="0.22"/><stop offset="0.4" stop-color="#000000" stop-opacity="0"/><stop offset="1" stop-color="#000000" stop-opacity="0.3"/></linearGradient><filter id="sh4552" x="-12%" y="-12%" width="130%" height="130%"><feDropShadow dx="0" dy="6" stdDeviation="10" flood-color="#000000" flood-opacity="0.28"/></filter></defs><rect width="900" height="700" fill="url(#sky4552)"/><rect width="900" height="700" fill="url(#sun4552)"/><rect width="900" height="700" fill="#e3ded6"/><rect x="0" y="406" width="900" height="294" fill="#d3cdc3"/><rect x="0" y="406" width="900" height="4" fill="#000" opacity="0.2"/><rect x="72" y="112" width="684" height="32" fill="#23282e" opacity="0.55"/><rect x="72" y="112" width="684" height="8" fill="#525c65" opacity="0.85"/><rect x="72" y="144" width="684" height="6" fill="#000" opacity="0.22"/><rect x="91" y="162" width="684" height="32" fill="#23282e" opacity="0.61"/><rect x="91" y="162" width="684" height="8" fill="#525c65" opacity="0.85"/><rect x="91" y="195" width="684" height="6" fill="#000" opacity="0.22"/><rect x="110" y="213" width="684" height="32" fill="#23282e" opacity="0.66"/><rect x="110" y="213" width="684" height="8" fill="#525c65" opacity="0.85"/><rect x="110" y="245" width="684" height="6" fill="#000" opacity="0.22"/><rect x="129" y="263" width="684" height="32" fill="#23282e" opacity="0.72"/><rect x="129" y="263" width="684" height="8" fill="#525c65" opacity="0.85"/><rect x="129" y="295" width="684" height="6" fill="#000" opacity="0.22"/><rect x="148" y="314" width="684" height="32" fill="#23282e" opacity="0.77"/><rect x="148" y="314" width="684" height="8" fill="#525c65" opacity="0.85"/><rect x="148" y="346" width="684" height="6" fill="#000" opacity="0.22"/><rect x="166" y="364" width="684" height="32" fill="#23282e" opacity="0.83"/><rect x="166" y="364" width="684" height="8" fill="#525c65" opacity="0.85"/><rect x="166" y="396" width="684" height="6" fill="#000" opacity="0.22"/><rect x="185" y="414" width="684" height="32" fill="#23282e" opacity="0.88"/><rect x="185" y="414" width="684" height="8" fill="#525c65" opacity="0.85"/><rect x="185" y="447" width="684" height="6" fill="#000" opacity="0.22"/><rect x="204" y="465" width="684" height="32" fill="#23282e" opacity="0.94"/><rect x="204" y="465" width="684" height="8" fill="#525c65" opacity="0.85"/><rect x="204" y="497" width="684" height="6" fill="#000" opacity="0.22"/><rect x="45" y="56" width="252" height="8" fill="#fd7a00"/><g opacity="0.09"><path d="M689 700 L1179 0 L1212 0 L722 700 Z" fill="#ffffff"/><path d="M331 700 L821 0 L852 0 L362 700 Z" fill="#ffffff"/><path d="M-246 700 L244 0 L281 0 L-209 700 Z" fill="#ffffff"/><path d="M-582 700 L-92 0 L-53 0 L-543 700 Z" fill="#ffffff"/></g><rect width="900" height="700" fill="url(#vig4552)"/><g opacity="0.72"><rect x="18" y="660" width="171" height="24" fill="#0d0f12" opacity="0.7"/><text x="29" y="676" font-family="Inter,Helvetica,Arial,sans-serif" font-size="11" font-weight="700" letter-spacing="2" fill="#ffffff">PLACEHOLDER &#183; FABRICATION</text></g></svg>