<svg xmlns="http://www.w3.org/2000/svg" viewBox="0 0 900 700" width="900" height="700" role="img" preserveAspectRatio="xMidYMid slice"><defs><linearGradient id="sky2121" x1="0" y1="0" x2="0.2" y2="1"><stop offset="0" stop-color="#a9b6bf"/><stop offset="1" stop-color="#e2e8eb"/></linearGradient><radialGradient id="sun2121" cx="0.78" cy="0.12" r="0.55"><stop offset="0" stop-color="#fff4e2" stop-opacity="0.85"/><stop offset="1" stop-color="#fff4e2" stop-opacity="0"/></radialGradient><linearGradient id="p2121_0" x1="0.15" y1="0" x2="0.5" y2="1"><stop offset="0" stop-color="#5f727e"/><stop offset="0.52" stop-color="#b0bcc4"/><stop offset="0.53" stop-color="#5f727e" stop-opacity="0.88"/><stop offset="1" stop-color="#b0bcc4"/></linearGradient><linearGradient id="p2121_1" x1="0.15" y1="0" x2="0.5" y2="1"><stop offset="0" stop-color="#6d808c"/><stop offset="0.52" stop-color="#bdc8cf"/><stop offset="0.53" stop-color="#6d808c" stop-opacity="0.88"/><stop offset="1" stop-color="#bdc8cf"/></linearGradient><linearGradient id="p2121_2" x1="0.15" y1="0" x2="0.5" y2="1"><stop offset="0" stop-color="#51636f"/><stop offset="0.52" stop-color="#9daab3"/><stop offset="0.53" stop-color="#51636f" stop-opacity="0.88"/><stop offset="1" stop-color="#9daab3"/></linearGradient><linearGradient id="p2121_3" x1="0.15" y1="0" x2="0.5" y2="1"><stop offset="0" stop-color="#7a8c97"/><stop offset="0.52" stop-color="#c9d3d9"/><stop offset="0.53" stop-color="#7a8c97" stop-opacity="0.88"/><stop offset="1" stop-color="#c9d3d9"/></linearGradient><linearGradient id="sheen2121" x1="0" y1="0" x2="0.85" y2="1"><stop offset="0" stop-color="#ffffff" stop-opacity="0.42"/><stop offset="0.38" stop-color="#ffffff" stop-opacity="0.04"/><stop offset="0.62" stop-color="#ffffff" stop-opacity="0.16"/><stop offset="1" stop-color="#ffffff" stop-opacity="0"/></linearGradient><linearGradient id="vig2121" x1="0" y1="0" x2="0.15" y2="1"><stop offset="0" stop-color="#000000" stop-opacity="0.22"/><stop offset="0.4" stop-color="#000000" stop-opacity="0"/><stop offset="1" stop-color="#000000" stop-opacity="0.3"/></linearGradient><filter id="sh2121" x="-12%" y="-12%" width="130%" height="130%"><feDropShadow dx="0" dy="6" stdDeviation="10" flood-color="#000000" flood-opacity="0.28"/></filter></defs><rect width="900" height="700" fill="url(#sky2121)"/><rect width="900" height="700" fill="url(#sun2121)"/><rect x="0" y="616" width="900" height="84" fill="#8a9197"/><rect x="0" y="0" width="900" height="119" fill="#15191d"/><rect x="0" y="119" width="900" height="13" fill="#fd7a00"/><rect x="0" y="132" width="900" height="490" fill="#c5cace"/><g filter="url(#sh2121)"><rect x="18" y="147" width="378" height="462" fill="#15191d"/><rect x="24.0" y="153.0" width="180.0" height="450.0" fill="url(#p2121_1)"/><rect x="24.0" y="153.0" width="180.0" height="450.0" fill="url(#sheen2121)"/><rect x="210.0" y="153.0" width="180.0" height="450.0" fill="url(#p2121_0)"/><rect x="210.0" y="153.0" width="180.0" height="450.0" fill="url(#sheen2121)"/><rect x="18" y="147" width="378" height="2.4" fill="#414a52" opacity="0.9"/><rect x="18" y="147" width="2.4" height="462" fill="#414a52" opacity="0.55"/></g><g filter="url(#sh2121)"><rect x="423" y="147" width="216" height="462" fill="#15191d"/><rect x="426.0" y="150.0" width="103.5" height="73.0" fill="url(#p2121_2)"/><rect x="426.0" y="150.0" width="103.5" height="73.0" fill="url(#sheen2121)"/><rect x="532.5" y="150.0" width="103.5" height="73.0" fill="url(#p2121_3)"/><rect x="532.5" y="150.0" width="103.5" height="73.0" fill="url(#sheen2121)"/><rect x="426.0" y="226.0" width="103.5" height="380.0" fill="url(#p2121_0)"/><rect x="426.0" y="226.0" width="103.5" height="380.0" fill="url(#sheen2121)"/><rect x="532.5" y="226.0" width="103.5" height="380.0" fill="url(#p2121_2)"/><rect x="532.5" y="226.0" width="103.5" height="380.0" fill="url(#sheen2121)"/><rect x="423" y="147" width="216" height="1.2" fill="#414a52" opacity="0.9"/><rect x="423" y="147" width="1.2" height="462" fill="#414a52" opacity="0.55"/></g><g filter="url(#sh2121)"><rect x="666" y="147" width="216" height="462" fill="#15191d"/><rect x="669.0" y="150.0" width="210.0" height="456.0" fill="url(#p2121_1)"/><rect x="669.0" y="150.0" width="210.0" height="456.0" fill="url(#sheen2121)"/><rect x="666" y="147" width="216" height="1.2" fill="#414a52" opacity="0.9"/><rect x="666" y="147" width="1.2" height="462" fill="#414a52" opacity="0.55"/></g><rect x="518" y="350" width="9" height="91" fill="#414a52"/><g opacity="0.09"><path d="M733 700 L1223 0 L1252 0 L762 700 Z" fill="#ffffff"/><path d="M-230 700 L260 0 L351 0 L-139 700 Z" fill="#ffffff"/><path d="M686 700 L1176 0 L1232 0 L742 700 Z" fill="#ffffff"/><path d="M446 700 L936 0 L989 0 L499 700 Z" fill="#ffffff"/></g><rect width="900" height="700" fill="url(#vig2121)"/><g opacity="0.72"><rect x="18" y="660" width="165" height="24" fill="#0d0f12" opacity="0.7"/><text x="29" y="676" font-family="Inter,Helvetica,Arial,sans-serif" font-size="11" font-weight="700" letter-spacing="2" fill="#ffffff">PLACEHOLDER &#183; SHOPFRONTS</text></g></svg>